<?xml version="1.0" standalone="no"?>
<!DOCTYPE svg PUBLIC "-//W3C//DTD SVG 20010904//EN"
 "http://www.w3.org/TR/2001/REC-SVG-20010904/DTD/svg10.dtd">
<svg version="1.0" xmlns="http://www.w3.org/2000/svg"
 width="187.000000pt" height="197.000000pt" viewBox="0 0 187.000000 197.000000"
 preserveAspectRatio="xMidYMid meet">
<metadata>
Created by potrace 1.16, written by Peter Selinger 2001-2019
</metadata>
<g transform="translate(0.000000,197.000000) scale(0.100000,-0.100000)"
fill="#000000" stroke="none">
<path d="M820 1930 c-161 -23 -330 -96 -467 -205 -78 -61 -186 -183 -218 -246
-12 -22 -23 -29 -45 -29 -30 0 -30 0 -30 -57 0 -36 -11 -89 -27 -138 -23 -71
-27 -100 -31 -249 -5 -189 4 -249 50 -365 119 -304 412 -540 732 -592 117 -18
301 -7 411 26 203 60 398 199 514 368 46 67 107 194 133 277 21 67 23 93 22
255 0 171 -1 184 -29 265 -16 47 -30 113 -33 148 -3 57 -5 62 -27 62 -18 0
-34 15 -66 63 -54 80 -197 222 -274 272 -175 114 -419 172 -615 145z m273
-106 c184 -41 370 -159 483 -305 l45 -59 -153 -1 c-84 0 -195 -3 -245 -5 -92
-5 -93 -5 -93 18 0 69 -50 152 -109 183 -117 60 -255 -10 -282 -142 l-12 -58
-243 0 c-134 0 -244 2 -244 4 0 2 23 32 52 68 117 148 293 257 483 298 84 19
232 18 318 -1z m-103 -227 c33 -17 70 -73 70 -107 0 -34 -23 -40 -161 -40
l-99 0 0 35 c0 47 23 91 58 109 33 19 99 20 132 3z m756 -229 l-3 -23 -418 -3
c-320 -2 -421 -5 -427 -15 -5 -9 -100 -13 -391 -15 l-384 -4 -6 24 c-4 13 -7
31 -7 41 0 16 46 17 820 17 l820 0 -4 -22z m-1556 -383 c0 -236 -2 -276 -15
-281 -9 -4 -15 -19 -16 -38 0 -30 -1 -29 -19 16 -37 92 -53 203 -47 333 5 101
24 205 44 238 2 4 15 7 29 7 l24 0 0 -275z m170 245 c25 -60 96 -74 142 -28
18 18 22 19 29 5 23 -40 106 -41 138 -3 13 15 16 15 38 -6 32 -30 85 -29 118
2 14 13 25 18 25 11 0 -7 16 -19 35 -26 38 -17 79 -7 104 23 10 13 15 14 18 4
3 -7 18 -19 35 -28 24 -12 36 -13 64 -4 18 6 38 19 44 28 9 16 11 16 20 1 5
-9 23 -22 38 -28 24 -10 36 -9 66 3 20 8 36 20 36 27 0 7 9 4 23 -8 12 -11 32
-24 44 -27 34 -11 88 17 104 53 10 21 21 31 36 31 l23 0 0 -280 c0 -273 0
-280 -20 -280 -15 0 -20 -7 -20 -28 0 -15 -6 -40 -12 -55 l-13 -27 -252 0
-253 0 0 65 c0 57 2 65 18 63 15 -3 17 10 20 145 l3 147 54 0 55 0 0 35 0 35
-155 0 -155 0 0 -35 0 -35 50 0 50 0 -2 -245 -3 -246 -263 -2 -262 -2 0 31 c0
17 -3 59 -6 93 -6 56 -9 61 -30 61 l-24 0 0 280 c0 231 2 280 14 280 7 0 19
-14 26 -30z m1383 -24 c48 -150 44 -333 -10 -498 -25 -76 -28 -80 -31 -48 -2
19 -10 39 -18 43 -12 7 -14 55 -14 276 0 147 3 271 7 274 3 4 16 7 28 7 17 0
25 -11 38 -54z m-1473 -245 c0 -212 -2 -250 -15 -255 -13 -5 -15 27 -15 249 0
220 2 255 15 255 13 0 15 -34 15 -249z m1282 -551 c-20 -19 -37 -20 -319 -22
-257 -3 -298 -5 -298 -18 0 -13 -39 -15 -280 -18 l-281 -2 -39 40 -39 40 639
0 c638 0 639 0 617 -20z m-618 -147 l-1 -28 -188 -3 c-186 -2 -188 -2 -231 23
-24 14 -44 28 -44 30 0 3 105 5 233 5 l233 0 -2 -27z"/>
<path d="M420 900 l0 -180 35 0 35 0 1 98 0 97 50 -97 c27 -54 51 -98 54 -98
3 0 27 44 54 98 l50 97 0 -97 1 -98 40 0 40 0 0 181 0 180 -42 -3 -42 -3 -49
-100 -49 -100 -51 103 -52 102 -37 0 -38 0 0 -180z"/>
<path d="M1276 1072 c-9 -15 -136 -341 -136 -349 0 -4 17 -8 37 -7 34 1 40 5
53 37 l15 37 71 0 71 0 14 -36 c13 -33 18 -37 52 -38 46 -1 48 -14 -34 203
l-61 161 -39 0 c-21 0 -40 -4 -43 -8z"/>
</g>
</svg>
