<svg xmlns="http://www.w3.org/2000/svg" viewBox="0 0 384 512" width="24" height="24">
  <!--!Font Awesome Free 6.7.1 by @fontawesome - https://fontawesome.com -->
  <path fill="#eff6ef" d="M192 0c-41.8 0-77.4 26.7-90.5 64L64 64C28.7 64 0 92.7 0 128L0 448c0 35.3 28.7 64 64 64l256 0c35.3 0 64-28.7 64-64l0-320c0-35.3-28.7-64-64-64l-37.5 0C269.4 26.7 233.8 0 192 0zm0 64a32 32 0 1 1 0 64 32 32 0 1 1 0-64z"/>
  <!-- Times (X) Symbol -->
  <path fill="#ffffff" d="M240.1 288l39.5-39.5c9.4-9.4 9.4-24.6 0-33.9s-24.6-9.4-33.9 0L192 254.1l-53.7-53.7c-9.4-9.4-24.6-9.4-33.9 0s-9.4 24.6 0 33.9L150.1 288l-39.5 39.5c-9.4 9.4-9.4 24.6 0 33.9s24.6 9.4 33.9 0L192 321.9l53.7 53.7c9.4 9.4 24.6 9.4 33.9 0s9.4-24.6 0-33.9L240.1 288z"/>
</svg>
